<svg width="48" height="48" viewBox="0 0 48 48" fill="none" xmlns="http://www.w3.org/2000/svg">
<path fill-rule="evenodd" clip-rule="evenodd" d="M24.0605 12.4728C17.7686 12.4728 12.6513 17.5883 12.6485 23.8755C12.6475 26.03 13.2509 28.1287 14.3928 29.9449L14.664 30.3763L13.5121 34.5841L17.8291 33.4516L18.2458 33.6987C19.9968 34.7377 22.0048 35.2876 24.0515 35.2881H24.0562C30.3434 35.2881 35.4607 30.1726 35.463 23.8845C35.4645 20.837 34.279 17.9719 32.125 15.8165C29.9715 13.6611 27.1074 12.4733 24.0609 12.4719L24.0605 12.4728ZM30.787 29.2248C30.6486 29.5702 30.3056 29.9024 29.9059 30.174C27.8761 31.5532 26.1956 30.6985 24.0893 29.7767C20.5283 28.2171 18.3852 24.424 18.216 24.1802C18.0474 23.9369 16.8364 22.1982 16.9021 20.4487C16.9673 18.6981 17.9189 17.8727 18.2576 17.5292C18.8255 16.9542 20.3388 16.881 20.6809 17.7985C20.9502 18.5214 21.5961 20.2984 21.6783 20.4789C21.761 20.6603 21.8125 20.8701 21.6854 21.103C21.6651 21.1394 21.6466 21.1739 21.6287 21.2065C21.3098 21.8009 20.2703 22.4496 20.567 23.0047C20.7612 23.3681 21.4312 24.5592 22.4527 25.5414C23.1807 26.2412 23.8531 26.682 24.3671 26.9678C24.8136 27.2164 25.6111 27.7876 26.0203 27.3534C26.2357 27.1238 26.9473 26.3484 27.1981 26.0021C27.4485 25.6553 27.6834 25.7233 28.0051 25.8537C28.3273 25.9846 30.0424 26.9102 30.3916 27.1016C30.7407 27.292 30.9741 27.3907 31.0573 27.5419C31.1404 27.6936 31.1144 28.4056 30.7865 29.2244L30.787 29.2248Z" fill="#827C86"/>
<path fill-rule="evenodd" clip-rule="evenodd" d="M24 0C10.7813 0 0 10.7814 0 23.9998C0 37.2182 10.7813 48 24 48C37.2187 48 48 37.2186 48 23.9998C48 10.7809 37.2183 0 24 0ZM24.0562 37.6051H24.0506C21.7534 37.6042 19.4969 37.0282 17.4922 35.9354L10.2171 37.8432L12.1642 30.7339C10.9632 28.6532 10.331 26.2927 10.3324 23.875C10.3353 16.3098 16.492 10.1558 24.0562 10.1558C27.7278 10.1572 31.174 11.5865 33.765 14.1799C36.3565 16.7733 37.7824 20.22 37.781 23.8859C37.7781 31.4507 31.6209 37.6056 24.0572 37.6056L24.0562 37.6051Z" fill="#827C86"/>
</svg>
