<svg width="45" height="29" viewBox="0 0 45 29" fill="none" xmlns="http://www.w3.org/2000/svg">
<path d="M26.3264 14.8539C26.2867 14.8139 26.2669 14.7638 26.2619 14.7088L26.2371 13.5285C26.2371 10.5877 28.6129 8.19705 31.5342 8.19705C34.4555 8.19705 36.7221 10.4777 36.8312 13.3184C36.8312 13.4335 36.9254 13.5235 37.0395 13.5235H38.8151C38.9341 13.5235 39.0333 13.4235 39.0333 13.3034C38.9143 9.24734 35.6012 5.98145 31.5391 5.98145C27.4771 5.98145 24.0399 9.36237 24.0399 13.5485L24.0846 15.6391C24.0846 15.6941 24.1094 15.7441 24.1491 15.7841L27.8986 19.5552C27.983 19.6402 27.983 19.7752 27.8986 19.8552L22.6363 25.1467C22.552 25.2317 22.4181 25.2317 22.3387 25.1467L17.0863 19.8652C17.002 19.7802 17.002 19.6452 17.0863 19.5652L20.8359 15.7941C20.8756 15.7541 20.8954 15.7041 20.9004 15.6491L20.9451 13.5335C20.9451 9.37737 17.5823 5.99145 13.4459 5.99145C9.30943 5.99145 6.06573 9.25734 5.95166 13.3134C5.95166 13.4335 6.0459 13.5335 6.16989 13.5335H7.94549C8.05956 13.5335 8.14884 13.4435 8.1538 13.3285C8.26291 10.4827 10.594 8.20705 13.4508 8.20705C16.3077 8.20705 18.7479 10.5977 18.7479 13.5135L18.7231 14.7188C18.7231 14.7738 18.6983 14.8239 18.6586 14.8639L13.9766 19.5702C13.8923 19.6552 13.8923 19.7902 13.9766 19.8702L22.3437 28.2875C22.428 28.3726 22.5619 28.3726 22.6413 28.2875L31.0084 19.8602C31.0927 19.7752 31.0927 19.6402 31.0084 19.5602L26.3264 14.8539Z" fill="#CDAE8F"/>
<path d="M31.5392 0C28.2509 0 25.0716 1.22533 22.6265 3.40093C22.5471 3.47095 22.433 3.47095 22.3537 3.40093C19.9085 1.23534 16.7293 0.0150035 13.4509 0.0150035C6.03604 0.0150035 0 6.08166 0 13.5437C0 16.8396 1.1953 20.0205 3.38256 22.5161L4.54315 23.7565C4.62746 23.8465 4.76138 23.8465 4.84569 23.7565L14.2246 14.3239L12.6722 12.7585L4.92505 20.5506C4.83578 20.6406 4.68202 20.6356 4.60763 20.5306C3.05026 18.5451 2.20214 16.0844 2.20214 13.5387C2.20214 7.29699 7.25119 2.22061 13.4509 2.22061C16.5954 2.22061 19.5117 3.49095 21.6792 5.82159L22.3289 6.53678C22.4132 6.62681 22.557 6.62681 22.6414 6.53678L23.1324 6.00664C25.2452 3.71601 28.1665 2.28562 31.2763 2.21561C37.6 2.06556 42.7929 7.19697 42.7929 13.5287C42.7929 16.0844 41.9349 18.5501 40.3874 20.5256C40.3081 20.6256 40.1593 20.6356 40.07 20.5406L32.4716 12.8985C32.3873 12.8135 32.2534 12.8135 32.174 12.8985L30.9192 14.1589C30.8349 14.2439 30.8349 14.3789 30.9192 14.4589L40.1493 23.7415C40.2337 23.8265 40.3725 23.8265 40.4519 23.7415L41.6373 22.4761C43.8047 20.0055 45 16.8296 45 13.5287C45 6.07166 38.9689 0 31.5491 0H31.5392Z" fill="#CDAE8F"/>
</svg>
