<svg width="130" height="129" viewBox="0 0 130 129" fill="none" xmlns="http://www.w3.org/2000/svg">
<path d="M128.836 53.6908C128.407 47.6733 127.676 43.1889 122.217 40.5527C114.043 39.3922 105.748 36.9136 97.7318 34.5066C86.8145 31.2328 75.5318 27.8516 64.5786 27.8516C58.9909 27.8516 53.8976 28.704 49.0263 30.4591C40.079 33.6756 11.9617 48.8625 6.33828 54.5432C3.3009 57.6093 1.83952 62.9605 1.51716 66.614C0.557232 77.3307 0.370978 100.118 1.51716 111.437C1.99712 116.215 4.35395 120.363 8.3226 123.429C11.9402 126.223 16.7112 127.97 21.7759 128.357C25.1213 127.956 29.2046 127.763 34.2406 127.763C40.0288 127.763 46.3901 128.013 53.1311 128.271C60.4595 128.558 68.0386 128.852 75.5246 128.852C92.4093 128.852 113.091 127.541 123.184 117.325C127.919 112.533 127.955 109.288 128.005 103.915C128.02 102.554 128.034 101.014 128.134 99.3374C128.972 85.2537 129.811 67.3303 128.836 53.6908ZM124.008 50.2092V74.5799C121.666 78.785 119.38 86.8799 116.608 89.0719L86.2987 102.418L77.7095 65.8761L93.6557 60.3601C96.6215 62.8172 102.94 67.8246 103.499 67.975C105.963 68.6413 115.978 64.0207 118.736 62.6954C119.072 60.969 117.382 61.5851 116.407 61.8C113.75 62.3802 106.142 66.3274 104.201 65.826C103.248 65.5824 99.5228 62.1152 96.2132 59.479L123.679 49.98C123.843 49.9227 124.015 50.0445 124.015 50.2236L124.008 50.2092ZM81.4704 102.088L39.3053 92.6036C39.1692 92.6967 39.0546 92.7827 38.9543 92.8687L44.2267 72.6457L73.4113 67.2873L81.4704 102.081V102.088ZM10.7654 57.5305C13.7097 54.4859 17.6855 52.3368 21.5252 50.2522C22.8218 49.5502 24.0468 48.884 25.2359 48.1891L25.8807 47.8094C35.0071 42.4582 50.28 33.5108 60.4452 32.4363C61.2976 32.3503 62.2289 32.3002 63.2103 32.3002C72.2938 32.3002 85.7972 36.1399 96.643 39.2202C100.268 40.2518 103.692 41.2261 106.507 41.9281C107.052 42.0642 108.563 42.2863 109.889 42.4869C113.392 43.0098 113.592 43.3107 114.151 43.4539C115.927 43.8909 122.411 45.2592 122.403 45.6818C122.403 45.6818 120.605 46.1976 119.968 46.3695C119.875 46.3982 119.781 46.4197 119.767 46.4197C114.466 49.1132 102.424 53.2395 91.8433 56.592C91.3705 56.4273 91.0052 56.4129 90.7975 56.6064C90.776 56.721 90.7688 56.8284 90.7616 56.9287C84.8516 58.7913 79.4932 60.3888 76.1693 61.32C70.5316 62.896 64.5284 63.856 58.7259 64.7801C57.7588 64.9377 56.7845 65.0881 55.8031 65.2529L63.5685 62.6381L74.8369 49.5574C81.9146 49.1634 91.4995 51.3984 98.3551 50.1519C99.5944 49.9299 100.361 49.3854 100.153 48.01H73.2896L62.845 60.4891C60.8248 61.8143 49.6138 64.9806 43.1665 67.0653L19.3259 61.8072C25.2288 60.4604 36.6476 55.9401 42.4072 53.6693C44.0261 53.0317 46.8773 52.5303 45.7382 50.2809C43.7181 51.6563 19.0537 58.9131 16.1811 61.1123L8.85988 59.4933L10.7582 57.5376L10.7654 57.5305ZM25.0927 123.472C24.7273 123.486 24.3476 123.493 23.9751 123.493C12.0119 123.493 7.0045 116.795 6.35261 111.057C5.20643 101.021 5.36403 77.7391 6.32395 67.0223C6.3741 66.485 6.4529 65.9477 6.56752 65.3603L6.86839 63.8345L38.7322 70.8691C38.7895 70.9193 38.854 70.948 38.94 70.948L39.0044 70.9265L40.0503 71.1557L39.0402 73.097L30.3866 107.117C29.09 104.868 24.1829 99.3804 23.4522 97.0164L22.8719 74.7232C23.2946 73.5197 21.7831 73.4194 21.3461 73.7203C20.5438 74.2719 20.7945 76.7863 20.816 77.7606C20.8876 81.1275 20.8876 95.6266 21.475 97.5178C22.1198 99.581 27.2561 106.845 28.9324 108.163C29.2691 108.428 29.6487 108.686 29.9639 108.772L26.2388 123.414L25.107 123.465L25.0927 123.472ZM30.9668 123.507L38.6462 94.0721C38.9901 94.4661 39.7781 94.7742 40.5804 95.0965C52.0995 99.6454 68.8553 100.383 81.8644 103.793L86.4348 123.515H30.9668V123.507ZM120.426 112.948C113.986 120.499 100.218 122.77 92.5812 123.45L91.2631 123.565L86.7572 104.395L118.6 90.2324C119.251 89.1507 121.83 84.2938 124.001 79.8738V106.58C124.001 108.414 120.455 112.905 120.419 112.948H120.426Z" fill="#D8D5D0"/>
</svg>
