<svg width="129" height="129" viewBox="0 0 129 129" fill="none" xmlns="http://www.w3.org/2000/svg">
<path d="M128.349 61.0731C126.481 52.1941 109.926 47.9273 102.275 46.2065C93.0126 44.1275 82.9565 42.8673 73.4826 42.6946V19.9918C73.4826 16.7741 67.8597 12.9423 64.7444 12.8528C62.1472 12.776 56.2108 16.3391 56.2108 18.706V42.6946C41.8433 43.6669 17.0998 45.0359 5.66846 54.5226C-0.26152 59.4418 0.787582 64.4379 1.20338 71.8008C1.70874 80.7565 6.03309 92.5781 6.09066 100.063C6.10985 102.429 4.59377 105.494 4.37628 108.244C3.77496 115.69 5.41258 122.03 13.6711 123.303C39.438 122.023 66.8106 124.998 92.3857 123.328C120.091 121.524 125.816 95.4375 127.85 72.4341C128.068 69.9968 128.759 63.0114 128.349 61.0667V61.0731ZM60.049 19.9918C60.049 19.8511 61.6227 17.8104 61.7698 17.7209C64.6484 15.9873 69.6445 17.9959 69.6445 21.2712V47.1789L60.049 46.5392V19.9918ZM104.22 58.3352C105.467 59.0132 106.472 59.8385 107.367 60.9259C105.902 62.7875 103.766 63.8621 101.616 64.7513C86.7947 70.8732 38.6832 71.3786 24.661 63.6894C23.5032 63.0561 20.8165 61.6488 21.744 60.0432C22.2686 59.1348 28.9982 56.7487 30.4823 56.3137C46.1484 51.7207 89.9612 50.5757 104.22 58.3352ZM120.264 93.6336C116.291 108.487 108.724 118.345 92.3857 119.49C67.1113 121.262 39.7898 118.096 14.298 119.477C2.74505 117.302 10.2935 106.14 10.1016 100.011C9.94163 94.9066 6.51286 85.4583 5.75802 79.4004C5.55971 77.8203 4.67693 67.5084 5.04796 67.0031C7.58115 68.4104 10.0248 70.0352 12.7307 71.1483C15.7693 72.4021 26.497 74.6026 27.7956 75.914C29.7018 77.8395 28.9342 82.9955 30.9876 85.5159C32.4461 87.2942 36.0732 88.1578 38.0179 90.0001C40.1673 92.0472 41.21 95.5463 43.1483 97.6637C46.3403 101.163 66.8618 106.236 73.0349 108.718C74.5765 109.338 79.4254 113.458 80.5321 110.809C77.743 110.304 75.9263 108.078 73.4954 106.978C65.6911 103.434 57.1 101.086 49.1998 98.0091C43.2954 95.7062 43.9543 91.2923 40.1673 87.8507C38.3505 86.2003 34.7363 85.3176 33.5208 83.6224C31.5953 80.9356 32.734 75.6453 29.9577 73.1121C28.0322 71.353 17.8291 69.3379 14.2084 67.7515C8.04813 65.052 1.33132 61.4761 9.71774 56.0003C17.8099 50.7164 39.6875 47.0573 49.5132 46.5392C52.6861 46.3729 56.6906 45.3621 56.8633 49.0852C49.6604 49.0212 21.7952 51.7143 18.8206 58.6998C17.4389 61.9431 19.198 64.1948 21.7248 66.0051C34.6659 75.2551 94.4327 75.2423 107.361 66.0051C115.562 60.1519 107.163 55.1879 101.169 53.0897C92.5328 50.0575 81.9842 49.437 72.8557 49.0916C73.3547 48.5606 73.3995 47.326 73.4315 46.552C73.4571 46.552 73.4762 46.5584 73.5018 46.5584C85.8927 47.4028 100.983 48.7077 112.683 53.0833C127.806 58.7382 125.752 63.1201 112.044 68.775C103.945 72.1142 94.8677 73.6943 86.2894 75.3319L91.714 75.9588C102.877 74.3787 115.21 73.5152 124.019 65.7301C125.228 67.3869 121.217 90.0833 120.27 93.64L120.264 93.6336Z" fill="#D8D5D0"/>
<path d="M92.891 112.85C91.2278 112.895 89.6478 111.692 88.0101 111.916C86.1806 112.159 83.0141 114.833 80.5513 115.345C73.0285 116.899 70.0923 112.844 64.1879 112.409C61.1109 112.185 57.7717 114.161 55.4112 113.586C52.0784 112.767 45.5215 105.558 40.2121 106.677C39.8666 108.5 40.6918 107.707 41.6066 108.123C44.9906 109.664 52.4111 114.769 54.2406 115.338C57.7589 116.439 62.0705 114.494 66.0622 115.044C69.4781 115.511 73.0285 118.147 77.0202 118.198C81.8946 118.262 84.9588 114.782 87.9142 114.36C90.3386 114.014 92.2449 115.313 94.7397 114.852C96.1535 114.59 99.6206 113.087 101.399 112.492C102.391 112.159 103.229 113.055 102.896 111.148C99.4223 110.131 95.8336 112.773 92.8846 112.85H92.891Z" fill="#D8D5D0"/>
<path d="M96.2238 101.591C94.3559 101.892 93.1533 103.357 91.0615 103.511C87.4216 103.773 80.4425 99.3397 78.2612 96.4483C76.3549 93.9279 76.2973 90.4479 73.489 88.7527C74.0008 96.7105 83.0589 105.66 91.0743 105.436C93.9273 105.359 96.9531 103.447 99.8701 103.626C103.855 103.869 107.546 108.008 111.864 107.298C107.815 104.086 101.591 100.721 96.2302 101.585L96.2238 101.591Z" fill="#D8D5D0"/>
<path d="M15.7309 87.9787C15.2511 86.3539 11.3042 75.172 10.786 74.6858C10.7349 74.6346 9.43627 74.4491 9.52583 74.9929C10.4726 80.9036 13.5175 86.2643 14.9569 91.9512C17.8035 103.203 16.2107 105.532 24.0853 115.447C24.693 116.208 24.8082 117.194 26.1451 116.899C25.2879 111.98 20.7141 108.647 19.0829 103.818C17.49 99.103 17.2534 93.1282 15.7373 87.9723L15.7309 87.9787Z" fill="#D8D5D0"/>
<path d="M106.798 90.9405C106.363 87.806 107.822 83.2961 104.821 81.0828V92.2775C104.821 92.7316 107.706 97.0496 108.346 97.7085C109.19 98.5784 112.479 101.214 113.783 100.587C111.442 96.8833 107.502 96.0261 106.798 90.9405Z" fill="#D8D5D0"/>
<path d="M22.9403 79.1637C21.277 78.8566 21.8144 79.4771 21.373 80.4367C16.9527 90.0321 29.3116 92.0919 35.7406 95.1433C30.3991 88.4329 18.8718 90.8765 22.9467 79.1573L22.9403 79.1637Z" fill="#D8D5D0"/>
</svg>
