<svg width="129" height="129" viewBox="0 0 129 129" fill="none" xmlns="http://www.w3.org/2000/svg">
<path d="M117.298 64.2154L116.601 63.8829L116.984 63.2179C117.812 61.7813 118.496 60.0373 118.734 58.77C119.299 55.7273 117.436 40.6772 115.968 38.9143C114.857 37.5843 108.985 35.1753 106.858 35.1753H106.758C105.177 35.2631 102.843 36.6872 100.786 37.9419C98.9978 39.0272 97.4545 39.9683 96.3692 40.0812L96.2437 40.0937L70.8673 33.8516C68.1759 35.2192 66.0618 37.2581 63.8284 39.4162C62.3855 40.8089 60.8861 42.2518 59.2299 43.4877L59.0103 43.6508L34.4557 41.4802C33.1571 41.7813 31.6703 42.5718 30.2337 43.3371C28.5461 44.2342 26.802 45.1565 25.196 45.4011C24.9513 45.4388 24.7004 45.4576 24.4306 45.4576C23.3391 45.4576 22.1847 45.1439 21.0618 44.8491C19.9451 44.5479 18.7907 44.2405 17.718 44.2405C17.3855 44.2405 17.0843 44.2656 16.7958 44.3284C14.8572 44.7173 8.89112 48.2681 7.39802 49.7612C5.13328 52.0071 0.0956409 60.6082 0.0329056 63.356C-0.142753 71.5868 4.77569 94.5166 6.68284 102.66C6.83968 103.325 6.98397 104.021 7.13454 104.736C7.73679 107.634 8.42061 110.928 10.1082 113.023C13.0191 116.637 22.1345 124.811 25.861 126.813C26.2562 127.026 27.8811 127.522 34.3428 127.522C39.5624 127.522 45.5097 127.195 47.6301 126.97C48.6276 126.863 50.334 126.443 51.9777 126.035C53.9225 125.552 55.6038 125.138 56.4382 125.138C56.5135 125.138 56.5887 125.138 56.6515 125.15C57.7995 125.263 59.2864 125.972 60.8673 126.712C62.0655 127.277 63.3077 127.867 64.3114 128.136C66.1057 128.619 67.6741 128.852 69.0981 128.852C72.0216 128.852 74.0417 127.873 76.595 126.637C78.0316 125.947 79.6565 125.156 81.6389 124.473C84.4432 123.5 87.053 123.049 89.8447 123.049C93.0944 123.049 96.1057 123.657 99.5938 124.366L101.087 124.667C101.871 124.824 102.749 125.025 103.69 125.244C106.444 125.884 109.876 126.675 112.818 126.675C115.039 126.675 116.67 126.242 117.806 125.345C119.97 123.645 126.012 117.49 126.921 115.52C127.078 111.041 127.417 106.468 127.743 102.039C128.163 96.3108 128.603 90.3823 128.646 84.6232C128.734 73.5191 128.207 69.4099 117.291 64.2154H117.298ZM73.4143 39.4664C73.4771 39.1401 73.728 38.7512 74.5749 38.7512C76.4005 38.7512 82.6113 40.3572 88.0881 41.775C91.4946 42.6596 95.0203 43.5693 95.6414 43.5881H95.7983C98.1257 43.5881 100.961 42.095 103.232 40.8905C105.102 39.8992 106.582 39.1213 107.68 39.1213C107.749 39.1213 107.818 39.1213 107.887 39.1339C108.81 39.2217 112.222 41.041 112.894 42.0511C113.897 43.5442 114.104 46.775 114.242 50.238C114.261 50.7336 114.28 51.1728 114.299 51.5366L114.431 53.8202L113.025 52.0134C111.752 50.376 110.522 49.6107 109.161 49.6107C107.58 49.6107 105.93 50.6458 104.186 51.7374C102.8 52.6031 101.369 53.5002 99.8196 53.9896C98.8033 54.3095 97.605 54.3472 96.6766 54.3472C96.2249 54.3472 95.7794 54.3346 95.3466 54.3284C94.9764 54.3221 94.6188 54.3095 94.2801 54.3095C93.4332 54.3095 78.5022 53.2932 77.4796 52.7035C76.2939 52.0197 75.7606 49.573 75.0141 45.6332C74.5938 43.3999 74.117 40.8716 73.521 40.0059L73.3516 39.7612L73.4081 39.4664H73.4143ZM53.8786 48.2619C54.324 47.6282 55.2148 47.5028 56.5072 47.5028C56.8146 47.5028 57.1345 47.509 57.467 47.5153C57.7995 47.5216 58.1383 47.5278 58.4708 47.5278C59.1734 47.5278 60.1646 47.4965 60.6916 47.2267C62.787 46.1477 65.2838 43.7386 67.2914 41.8001C67.8058 41.3045 68.2889 40.834 68.7406 40.4137L68.9476 40.2192H69.2299C69.4369 40.2192 69.7318 40.3007 69.9702 40.6772C70.6979 41.844 73.1132 53.312 72.6113 54.3409C72.1032 55.376 63.8535 61.913 62.6301 62.4275C61.9338 62.7223 57.7744 63.1238 56.6389 63.1238C56.2876 63.1238 55.999 63.105 55.7669 62.9105C54.7067 62.0071 52.7619 49.8428 53.8786 48.2556V48.2619ZM4.73178 67.9105C3.64018 66.0787 3.76565 63.5065 5.10191 60.4764C7.49213 55.0498 13.5837 48.7637 17.1784 48.0172C17.2914 47.9921 17.4106 47.9858 17.5423 47.9858C18.1383 47.9858 19.0229 48.2117 20.1396 48.494C21.6138 48.8704 23.452 49.3346 24.9513 49.3346C25.2838 49.3346 25.585 49.3095 25.8485 49.2656C27.4859 48.9896 29.1609 48.105 30.7795 47.2455C32.4608 46.3547 34.048 45.5203 35.6289 45.3007C35.6728 45.3007 35.7355 45.2882 35.8234 45.2882C37.0028 45.2882 47.2663 46.43 47.9815 46.706C50.1521 47.5404 50.2023 52.3396 49.7318 53.8139C49.4306 54.7612 48.4959 55.2443 46.9589 55.2443C45.9739 55.2443 44.8761 55.0624 43.9037 54.9055C43.2889 54.8051 42.7054 54.7048 42.3604 54.6985C41.846 54.6859 41.3252 54.6797 40.8108 54.6797C38.3704 54.6797 35.8736 54.7989 33.4582 54.9118C31.0178 55.0247 28.4959 55.1439 26.0053 55.1439C24.2926 55.1439 22.7368 55.0874 21.2751 54.9745C20.6101 55.4137 19.9325 55.8528 19.255 56.292C14.2487 59.5291 9.07933 62.8729 5.94257 67.9105L5.32776 68.9018L4.73178 67.898V67.9105ZM7.41685 85.8528L7.29765 83.5567C7.26001 82.8102 6.9526 81.5555 6.62638 80.2255C5.94884 77.4588 5.25248 74.6044 6.01785 73.1991L6.09313 73.0611L6.2186 72.967C7.41684 72.0762 8.4708 70.6019 9.49338 69.1715C10.2588 68.105 10.9802 67.1012 11.733 66.3735C13.1885 64.9683 19.4808 60.2192 21.2061 59.297C22.1471 58.7951 23.1697 58.5567 24.3428 58.5567C25.2588 58.5567 26.1559 58.701 27.0216 58.839C27.8623 58.9708 28.659 59.1025 29.4432 59.1025H29.5185C31.1998 59.0837 32.9313 58.9582 34.6063 58.839C36.4256 58.7073 38.3077 58.5755 40.1458 58.5755C40.7983 58.5755 41.4005 58.5944 41.984 58.6257C42.7995 58.6696 48.4959 59.2531 49.3365 59.5856C50.8736 60.1878 51.6703 62.8102 51.6389 64.9683C51.6076 67.2142 50.7544 68.8077 49.2989 69.3346C48.9664 69.4538 48.521 69.5103 47.9313 69.5103C45.723 69.5103 41.5323 68.6696 37.4796 67.8541C33.5837 67.0699 29.5624 66.2606 27.5862 66.2606C27.4984 66.2606 27.4168 66.2606 27.3416 66.2606C24.1609 66.3923 15.127 73.3246 12.7744 76.2104C11.7644 77.4463 10.999 79.09 10.2588 80.6772C9.7506 81.7688 9.22362 82.898 8.62136 83.8892L7.42312 85.8528H7.41685ZM122.774 114.228C121.984 114.906 121.018 115.991 120.002 117.139C117.856 119.56 115.635 122.064 113.552 122.628C113.063 122.76 112.505 122.823 111.833 122.823C109.217 122.823 105.472 121.794 101.852 120.803C98.5273 119.893 95.3842 119.027 93.383 119.021C91.2562 119.021 81.6577 120.382 79.8635 120.934C78.1257 121.474 76.8585 122.202 75.6352 122.904C73.7907 123.964 72.0467 124.968 69.1985 124.968C68.2826 124.968 67.3039 124.868 66.2123 124.655C64.669 124.36 63.0379 123.632 61.457 122.936C59.6063 122.114 57.6929 121.267 56.1245 121.223H55.999C54.8761 121.223 53.6527 121.618 52.3604 122.039C51.3127 122.377 50.2274 122.735 49.1358 122.879C46.4507 123.243 38.3014 123.801 32.9752 123.801C30.7042 123.801 29.2236 123.701 28.452 123.494C25.2901 122.653 14.8384 113.306 13.0191 110.759C12.5109 110.05 8.85976 97.44 8.90367 96.5555C9.02287 94.1903 14.3491 80.2506 15.8547 78.3622C16.9777 76.957 25.9865 70.2004 28.2261 70.1251C30.654 70.2443 33.8911 70.9218 37.3165 71.6433C41.2751 72.4777 45.3717 73.3371 48.3328 73.3371C48.8848 73.3371 49.3867 73.3058 49.8259 73.243C52.4419 72.8792 53.3077 71.4112 54.2236 69.8553C54.8384 68.8139 55.472 67.7349 56.6389 67.0762C57.649 66.5053 58.7406 66.4613 59.8635 66.4613H60.5034C62.3165 66.4613 64.1295 66.3296 66.3692 64.7299C67.4106 63.9833 68.979 62.5028 70.4909 61.0661C72.5862 59.0837 74.5624 57.2079 75.7794 56.6119C75.9739 56.5178 76.2437 56.4551 76.9212 56.4551C78.5461 56.4551 82.0906 56.8315 85.8359 57.233C90.0454 57.6847 94.8196 58.1928 97.2349 58.1928C97.6301 58.1928 97.9564 58.1803 98.1948 58.1552C99.8071 57.9733 102.749 56.5931 105.114 55.4827C107.53 54.3534 108.929 53.7135 109.682 53.7135C109.795 53.7135 109.895 53.7261 109.989 53.7512C110.585 53.908 114.286 56.4551 114.506 57.3585C114.864 58.8265 113.753 61.499 112.674 64.0837C112.109 65.4325 111.582 66.7123 111.419 67.4651C111.024 69.3534 110.673 78.6947 111.043 79.9871C111.369 81.1226 112.059 82.0762 112.787 83.0862C113.37 83.8955 113.973 84.7299 114.374 85.6709C114.907 86.9256 115.171 88.6885 115.447 90.558C115.66 91.9946 115.88 93.4814 116.225 94.6169C118.327 101.493 120.522 107.635 122.944 113.4L123.145 113.877L122.749 114.215L122.774 114.228ZM124.286 98.174C124.33 98.839 124.393 99.8365 123.283 100.533L122.668 100.916L122.291 100.294C120.428 97.2079 119.857 93.7575 119.305 90.4262C118.596 86.1289 117.925 82.0762 114.644 78.9331L114.374 78.6759L116.212 67.371L117.197 68.3936C117.975 69.2029 118.966 69.824 119.933 70.4262C121.595 71.4676 123.308 72.5404 124.086 74.6044C125.271 77.7474 124.631 93.8516 124.274 97.5592C124.255 97.7474 124.274 97.9545 124.28 98.174H124.286Z" fill="#D8D5D0"/>
<path d="M95.6163 72.6659C94.8949 71.9068 93.8033 73.3246 93.3579 73.9833C91.1119 77.2769 88.9852 85.4576 86.3503 87.5467L58.8096 99.6671L18.659 90.6332C17.0342 91.7374 18.3892 92.2644 19.7757 92.8102C30.8736 97.1891 47.5298 97.5279 59.255 101.392L88.1069 88.563C89.1797 86.7813 96.2311 73.2995 95.6226 72.6659H95.6163Z" fill="#D8D5D0"/>
<path d="M17.1157 104.604C16.6327 105.037 17.2349 106.016 17.9877 106.436C20.2462 107.704 26.664 107.559 29.531 108.852C34.1421 110.928 39.1107 116.279 43.728 118.337C44.6753 118.764 45.3842 119.241 46.1621 118.124C41.2061 115.144 35.5097 109.592 30.4156 107.246C29.4557 106.8 17.6239 104.146 17.1157 104.598V104.604Z" fill="#D8D5D0"/>
<path d="M31.7456 81.3735C33.3391 81.9444 45.2023 85.5015 45.9426 85.4952C47.1032 85.4764 52.1283 83.243 53.9288 82.7035C55.1772 82.3271 60.334 81.7562 60.5724 81.5178C60.8485 81.2418 60.4909 79.642 59.92 79.5417L45.7167 83.7073C41.3692 82.3585 36.1872 80.307 31.7456 79.5981C28.2638 79.0398 28.9727 80.3823 31.7456 81.3798V81.3735Z" fill="#D8D5D0"/>
<path d="M97.398 98.3748C96.1496 98.3936 85.4846 99.5667 84.9451 99.8804C83.0066 100.991 79.669 110.056 78.7782 112.584C79.6439 113.864 80.3027 112.434 80.7795 111.693C82.0655 109.686 84.3303 102.534 85.8422 101.643C87.1408 100.878 99.7569 100.966 99.8384 99.0523C99.2173 98.1113 98.3453 98.3622 97.4043 98.3748H97.398Z" fill="#D8D5D0"/>
<path d="M103.145 69.5479C102.938 68.036 103.113 65.5078 100.961 66.0097C101.764 68.1552 102.887 93.8139 104.28 93.7198C105.447 93.6445 105.221 92.0573 105.246 91.2857C105.422 86.1351 103.891 75.0561 103.145 69.5479Z" fill="#D8D5D0"/>
</svg>
