<svg width="32" height="32" viewBox="0 0 32 32" fill="none" xmlns="http://www.w3.org/2000/svg">
<rect width="32" height="32" rx="16" fill="#EFEFF3"/>
<path d="M15.9967 8C11.5738 8 8 11.5804 8 15.9967C8 19.3863 10.1061 22.2822 13.081 23.4471C13.0086 22.8153 12.9494 21.8412 13.1074 21.1501C13.2522 20.5249 14.042 17.1748 14.042 17.1748C14.042 17.1748 13.805 16.6944 13.805 15.9901C13.805 14.8778 14.45 14.0485 15.253 14.0485C15.9375 14.0485 16.2666 14.5619 16.2666 15.174C16.2666 15.8585 15.8322 16.8852 15.6018 17.8396C15.4109 18.636 16.0033 19.2875 16.7865 19.2875C18.2081 19.2875 19.3007 17.7869 19.3007 15.6281C19.3007 13.7129 17.9251 12.3768 15.9572 12.3768C13.68 12.3768 12.3439 14.0814 12.3439 15.8453C12.3439 16.5298 12.6072 17.267 12.9362 17.6684C13.0021 17.7474 13.0086 17.8198 12.9889 17.8988C12.9297 18.1489 12.7914 18.6952 12.7651 18.8071C12.7322 18.9519 12.6466 18.9848 12.4953 18.9124C11.508 18.4385 10.8893 16.9774 10.8893 15.8058C10.8893 13.2851 12.719 10.9683 16.1744 10.9683C18.9453 10.9683 21.1041 12.9428 21.1041 15.5886C21.1041 18.3464 19.3665 20.5644 16.9576 20.5644C16.1481 20.5644 15.3846 20.1432 15.1279 19.6429C15.1279 19.6429 14.7264 21.1699 14.6277 21.545C14.45 22.2427 13.963 23.1115 13.6339 23.6446C14.3842 23.8749 15.174 24 16.0033 24C20.4196 24 24 20.4196 24 16.0033C23.9934 11.5804 20.413 8 15.9967 8Z" fill="#827C86"/>
</svg>
