<svg width="227" height="30" viewBox="0 0 227 30" fill="none" xmlns="http://www.w3.org/2000/svg">
<g clip-path="url(#clip0_502_264)">
<path d="M226.951 21.7914L218.111 8.56132C218.056 8.48132 217.966 8.43132 217.871 8.43132H216.711C216.616 8.43132 216.526 8.48132 216.471 8.56132L207.631 21.7914C207.571 21.8814 207.566 21.9964 207.616 22.0864C207.666 22.1814 207.765 22.2414 207.87 22.2414H209.62C209.715 22.2414 209.805 22.1914 209.859 22.1114L211.978 18.9314H222.603L224.722 22.1114C224.777 22.1914 224.867 22.2414 224.962 22.2414H226.712C226.817 22.2414 226.916 22.1814 226.966 22.0864C227.016 21.9914 227.011 21.8764 226.951 21.7914ZM221.364 17.0714H213.213L217.296 10.9613L221.364 17.0714Z" fill="#414F64"/>
<path d="M206.781 18.1413C206.806 18.0513 206.791 17.9563 206.736 17.8863C206.681 17.8113 206.596 17.7663 206.501 17.7663H204.862C204.742 17.7663 204.637 17.8363 204.592 17.9463L204.502 18.1663C203.868 19.7363 201.849 20.3764 197.536 20.3764C191.409 20.3764 190.289 18.8013 190.289 15.6913V14.7963C190.289 11.8163 191.409 10.3013 197.536 10.3013C201.929 10.3013 203.963 10.9313 204.552 12.4813L204.637 12.7113C204.677 12.8263 204.787 12.8963 204.907 12.8963H206.531C206.621 12.8963 206.706 12.8513 206.761 12.7813C206.816 12.7063 206.831 12.6163 206.806 12.5263L206.671 12.0713C205.887 9.3863 203.238 8.2913 197.531 8.2913C190.774 8.3113 188.14 10.1263 188.14 14.7563V15.7463C188.14 20.5214 190.774 22.3864 197.531 22.3864C203.168 22.3864 205.802 21.2864 206.631 18.5913L206.771 18.1313L206.781 18.1413Z" fill="#414F64"/>
<path d="M184.837 8.43132H183.293C183.132 8.43132 183.003 8.56115 183.003 8.72132V21.9514C183.003 22.1115 183.132 22.2414 183.293 22.2414H184.837C184.997 22.2414 185.127 22.1115 185.127 21.9514V8.72132C185.127 8.56115 184.997 8.43132 184.837 8.43132Z" fill="#414F64"/>
<path d="M180.709 8.43132H164.707C164.547 8.43132 164.417 8.56132 164.417 8.72132V10.1363C164.417 10.2963 164.547 10.4263 164.707 10.4263H171.643V21.9514C171.643 22.1114 171.773 22.2414 171.933 22.2414H173.478C173.638 22.2414 173.767 22.1114 173.767 21.9514V10.4263H180.704C180.864 10.4263 180.994 10.2963 180.994 10.1363V8.72132C180.994 8.56132 180.864 8.43132 180.704 8.43132H180.709Z" fill="#414F64"/>
<path d="M164.427 5.59135C164.392 5.47135 164.277 5.38635 164.152 5.38635H162.718C162.658 5.38635 162.603 5.40635 162.553 5.43635L160.414 6.89636C160.309 6.96636 160.264 7.10136 160.299 7.22136C160.334 7.34136 160.449 7.42636 160.574 7.42636L161.958 7.43636C162.018 7.43636 162.073 7.42136 162.118 7.38636L164.307 5.91635C164.412 5.84635 164.457 5.71135 164.422 5.59135H164.427Z" fill="#414F64"/>
<path d="M162.128 8.43132H160.584C160.424 8.43132 160.294 8.56115 160.294 8.72132V21.9514C160.294 22.1115 160.424 22.2414 160.584 22.2414H162.128C162.288 22.2414 162.418 22.1115 162.418 21.9514V8.72132C162.418 8.56115 162.288 8.43132 162.128 8.43132Z" fill="#414F64"/>
<path d="M158 20.2314H147.39V8.72132C147.39 8.56132 147.26 8.43132 147.1 8.43132H145.556C145.396 8.43132 145.266 8.56132 145.266 8.72132V21.9514C145.266 22.1114 145.396 22.2414 145.556 22.2414H158C158.16 22.2414 158.29 22.1114 158.29 21.9514V20.5214C158.29 20.3614 158.16 20.2314 158 20.2314Z" fill="#414F64"/>
<path d="M132.383 8.30131C125.351 8.30131 122.608 10.1163 122.608 14.7663V15.7563C122.608 20.5214 125.346 22.3764 132.383 22.3764C139.42 22.3764 142.138 20.5214 142.138 15.7563V14.7663C142.138 10.1113 139.405 8.30131 132.383 8.30131ZM139.994 14.8063V15.7013C139.994 19.2764 138.215 20.3664 132.383 20.3664C126.551 20.3664 124.752 19.2764 124.752 15.7013V14.8063C124.752 11.3613 126.536 10.3113 132.383 10.3113C138.23 10.3113 139.994 11.3613 139.994 14.8063Z" fill="#414F64"/>
<path d="M119.195 8.39633H117.705C117.545 8.39633 117.415 8.52633 117.415 8.68633V19.2314L104.856 8.46633C104.806 8.42133 104.736 8.39633 104.666 8.39633H103.212C103.052 8.39633 102.922 8.52633 102.922 8.68633V21.9564C102.922 22.1164 103.052 22.2464 103.212 22.2464H104.721C104.881 22.2464 105.011 22.1164 105.011 21.9564V11.3613L117.55 22.1764C117.605 22.2214 117.67 22.2464 117.74 22.2464H119.195C119.355 22.2464 119.484 22.1164 119.484 21.9564V8.68633C119.484 8.52633 119.355 8.39633 119.195 8.39633Z" fill="#414F64"/>
<path d="M90.0439 8.30131C83.0122 8.30131 80.2685 10.1163 80.2685 14.7663V15.7563C80.2685 20.5214 83.0072 22.3764 90.0439 22.3764C97.0806 22.3764 99.7993 20.5214 99.7993 15.7563V14.7663C99.7993 10.1113 97.0656 8.30131 90.0439 8.30131ZM97.6553 14.8063V15.7013C97.6553 19.2764 95.8761 20.3664 90.0439 20.3664C84.2116 20.3664 82.4125 19.2764 82.4125 15.7013V14.8063C82.4125 11.3613 84.1966 10.3113 90.0439 10.3113C95.8911 10.3113 97.6553 11.3613 97.6553 14.8063Z" fill="#414F64"/>
<path d="M76.8706 8.39639H75.2214C75.1315 8.39639 75.0465 8.43639 74.9915 8.50639L67.1202 18.6114L59.2289 8.50639C59.174 8.43639 59.089 8.39639 58.9991 8.39639H57.2899C57.1299 8.39639 57 8.52639 57 8.68639V21.9564C57 22.1165 57.1299 22.2465 57.2899 22.2465H58.8341C58.9941 22.2465 59.124 22.1165 59.124 21.9564V11.7464L66.3106 21.0464C66.3656 21.1164 66.4506 21.1614 66.5405 21.1614H67.685C67.7749 21.1614 67.8599 21.1214 67.9149 21.0514L75.0265 11.8614V21.9564C75.0265 22.1165 75.1565 22.2465 75.3164 22.2465H76.8607C77.0206 22.2465 77.1505 22.1165 77.1505 21.9564V8.68639C77.1505 8.52639 77.0206 8.39639 76.8607 8.39639H76.8706Z" fill="#414F64"/>
<path d="M26.3265 15.8382C26.2868 15.7987 26.2669 15.7493 26.262 15.695L26.2372 14.5293C26.2372 11.625 28.6129 9.26395 31.5342 9.26395C34.4555 9.26395 36.7221 11.5163 36.8313 14.3218C36.8313 14.4355 36.9255 14.5244 37.0396 14.5244H38.8152C38.9342 14.5244 39.0334 14.4256 39.0334 14.307C38.9144 10.3012 35.6012 7.07581 31.5392 7.07581C27.4771 7.07581 24.04 10.4148 24.04 14.5491L24.0846 16.6137C24.0846 16.668 24.1094 16.7174 24.1491 16.757L27.8987 20.4812C27.983 20.5652 27.983 20.6986 27.8987 20.7776L22.6364 26.0034C22.5521 26.0874 22.4182 26.0874 22.3388 26.0034L17.0864 20.7875C17.0021 20.7035 17.0021 20.5701 17.0864 20.4911L20.836 16.7668C20.8757 16.7273 20.8955 16.6779 20.9005 16.6236L20.9451 14.5342C20.9451 10.4296 17.5824 7.08569 13.4459 7.08569C9.30949 7.08569 6.0658 10.3111 5.95172 14.3169C5.95172 14.4355 6.04596 14.5342 6.16995 14.5342H7.94555C8.05962 14.5342 8.1489 14.4453 8.15386 14.3317C8.26298 11.5212 10.5941 9.27382 13.4509 9.27382C16.3077 9.27382 18.7479 11.6348 18.7479 14.5145L18.7231 15.7049C18.7231 15.7592 18.6983 15.8086 18.6587 15.8481L13.9766 20.4961C13.8923 20.58 13.8923 20.7134 13.9766 20.7924L22.3438 29.1054C22.4281 29.1893 22.562 29.1893 22.6413 29.1054L31.0085 20.7825C31.0928 20.6986 31.0928 20.5652 31.0085 20.4862L26.3265 15.8382Z" fill="#414F64"/>
<path d="M31.5392 1.16833C28.2509 1.16833 25.0716 2.37848 22.6265 4.5271C22.5471 4.59625 22.433 4.59625 22.3537 4.5271C19.9085 2.38836 16.7293 1.18315 13.4509 1.18315C6.03604 1.18315 0 7.1746 0 14.5441C0 17.7992 1.1953 20.9406 3.38256 23.4053L4.54315 24.6303C4.62746 24.7192 4.76138 24.7192 4.8457 24.6303L14.2246 15.3147L12.6722 13.7686L4.92505 21.4642C4.83578 21.5531 4.68202 21.5481 4.60763 21.4444C3.05026 19.4835 2.20214 17.0533 2.20214 14.5392C2.20214 8.37486 7.25118 3.36141 13.4509 3.36141C16.5954 3.36141 19.5117 4.61601 21.6792 6.91775L22.3289 7.62408C22.4132 7.71299 22.557 7.71299 22.6414 7.62408L23.1324 7.10051C25.2452 4.83828 28.1665 3.42562 31.2763 3.35647C37.6 3.20829 42.7929 8.27607 42.7929 14.5293C42.7929 17.0533 41.9349 19.4884 40.3874 21.4395C40.3081 21.5383 40.1593 21.5481 40.07 21.4543L32.4716 13.9069C32.3873 13.823 32.2534 13.823 32.174 13.9069L30.9192 15.1517C30.8349 15.2356 30.8349 15.369 30.9192 15.448L40.1493 24.6155C40.2337 24.6994 40.3725 24.6994 40.4519 24.6155L41.6373 23.3658C43.8047 20.9258 45 17.7893 45 14.5293C45 7.16472 38.9689 1.16833 31.5491 1.16833H31.5392Z" fill="#414F64"/>
</g>
<defs>
<clipPath id="clip0_502_264">
<rect width="227" height="30" fill="white"/>
</clipPath>
</defs>
</svg>
