<svg width="142" height="50" viewBox="0 0 142 50" fill="none" xmlns="http://www.w3.org/2000/svg">
<g clip-path="url(#clip0_681_278)">
<path d="M141.805 49.4961L134.432 38.3822C134.387 38.3167 134.312 38.2764 134.232 38.2764H133.268C133.188 38.2764 133.113 38.3167 133.068 38.3822L125.7 49.4961C125.65 49.5717 125.645 49.6675 125.69 49.7481C125.73 49.8288 125.815 49.8741 125.905 49.8741H127.359C127.439 49.8741 127.514 49.8338 127.559 49.7683L129.329 47.0969H138.186L139.95 49.7683C139.995 49.8338 140.07 49.8741 140.15 49.8741H141.605C141.695 49.8741 141.775 49.8237 141.82 49.7481C141.86 49.6675 141.855 49.5717 141.81 49.4961H141.805ZM137.146 45.5344H130.353L133.757 40.4034L137.146 45.5344Z" fill="#CDAE8F"/>
<path d="M124.99 46.4316C125.015 46.356 125 46.2753 124.955 46.2148C124.91 46.1544 124.84 46.114 124.76 46.114H123.396C123.296 46.114 123.211 46.1745 123.171 46.2652L123.096 46.4517C122.566 47.7723 120.881 48.3116 117.288 48.3116C112.179 48.3116 111.245 46.986 111.245 44.3751V43.6241C111.245 41.1191 112.179 39.8489 117.288 39.8489C120.951 39.8489 122.646 40.3781 123.136 41.6785L123.211 41.8701C123.246 41.9658 123.336 42.0263 123.436 42.0263H124.79C124.865 42.0263 124.935 41.991 124.985 41.9306C125.03 41.8701 125.045 41.7894 125.025 41.7189L124.915 41.3358C124.26 39.0777 122.051 38.1604 117.298 38.1604C111.664 38.1755 109.47 39.6977 109.47 43.5939V44.4255C109.47 48.4376 111.664 50.0001 117.298 50.0001C121.996 50.0001 124.19 49.0777 124.88 46.8146L125 46.4265L124.99 46.4316Z" fill="#CDAE8F"/>
<path d="M106.706 38.2764H105.416C105.284 38.2764 105.177 38.3847 105.177 38.5183V49.6373C105.177 49.7709 105.284 49.8792 105.416 49.8792H106.706C106.839 49.8792 106.946 49.7709 106.946 49.6373V38.5183C106.946 38.3847 106.839 38.2764 106.706 38.2764Z" fill="#CDAE8F"/>
<path d="M103.262 38.2764H89.9263C89.7914 38.2764 89.6864 38.3873 89.6864 38.5183V39.7078C89.6864 39.8439 89.7963 39.9498 89.9263 39.9498H95.7095V49.6322C95.7095 49.7683 95.8194 49.8741 95.9494 49.8741H97.239C97.3739 49.8741 97.4789 49.7633 97.4789 49.6322V39.9498H103.262C103.397 39.9498 103.502 39.8389 103.502 39.7078V38.5183C103.502 38.3822 103.392 38.2764 103.262 38.2764Z" fill="#CDAE8F"/>
<path d="M89.6914 35.8872C89.6614 35.7864 89.5665 35.7158 89.4615 35.7158H88.2669C88.2169 35.7158 88.1719 35.7309 88.1319 35.7561L86.3475 36.9809C86.2625 37.0414 86.2225 37.1523 86.2525 37.2531C86.2825 37.3539 86.3775 37.4245 86.4825 37.4245L87.6371 37.4346C87.6871 37.4346 87.7321 37.4194 87.772 37.3942L89.5965 36.1594C89.6864 36.0989 89.7214 35.988 89.6914 35.8872Z" fill="#CDAE8F"/>
<path d="M87.772 38.2764H86.4824C86.3499 38.2764 86.2425 38.3847 86.2425 38.5183V49.6373C86.2425 49.7709 86.3499 49.8792 86.4824 49.8792H87.772C87.9045 49.8792 88.0119 49.7709 88.0119 49.6373V38.5183C88.0119 38.3847 87.9045 38.2764 87.772 38.2764Z" fill="#CDAE8F"/>
<path d="M84.3332 48.1856H75.491V38.5183C75.491 38.3822 75.381 38.2764 75.2511 38.2764H73.9615C73.8265 38.2764 73.7216 38.3873 73.7216 38.5183V49.6322C73.7216 49.7683 73.8315 49.8741 73.9615 49.8741H84.3332C84.4681 49.8741 84.5731 49.7633 84.5731 49.6322V48.4276C84.5731 48.2915 84.4631 48.1856 84.3332 48.1856Z" fill="#CDAE8F"/>
<path d="M62.985 38.1653C57.1219 38.1653 54.8376 39.6875 54.8376 43.5988V44.4304C54.8376 48.4324 57.1219 49.9899 62.985 49.9899C68.8481 49.9899 71.1124 48.4324 71.1124 44.4304V43.5988C71.1124 39.6875 68.8331 38.1653 62.985 38.1653ZM69.328 43.629V44.38C69.328 47.384 67.8435 48.2963 62.985 48.2963C58.1266 48.2963 56.627 47.379 56.627 44.38V43.629C56.627 40.7358 58.1116 39.8538 62.985 39.8538C67.8584 39.8538 69.328 40.7358 69.328 43.629Z" fill="#CDAE8F"/>
<path d="M51.9885 38.246H50.7489C50.6139 38.246 50.5089 38.3569 50.5089 38.4879V47.3438L40.0423 38.3014C39.9973 38.2662 39.9423 38.241 39.8873 38.241H38.6727C38.5378 38.241 38.4328 38.3519 38.4328 38.4829V49.6271C38.4328 49.7631 38.5428 49.869 38.6727 49.869H39.9273C40.0623 49.869 40.1672 49.7581 40.1672 49.6271V40.7258L50.6189 49.8085C50.6639 49.8488 50.7189 49.869 50.7788 49.869H51.9935C52.1284 49.869 52.2334 49.7581 52.2334 49.6271V38.4829C52.2334 38.3468 52.1234 38.241 51.9935 38.241L51.9885 38.246Z" fill="#CDAE8F"/>
<path d="M27.6912 38.1653C21.8281 38.1653 19.5438 39.6875 19.5438 43.5988V44.4304C19.5438 48.4324 21.8281 49.9899 27.6912 49.9899C33.5543 49.9899 35.8186 48.4324 35.8186 44.4304V43.5988C35.8186 39.6875 33.5394 38.1653 27.6912 38.1653ZM34.0342 43.629V44.38C34.0342 47.384 32.5497 48.2963 27.6912 48.2963C22.8328 48.2963 21.3333 47.379 21.3333 44.38V43.629C21.3333 40.7358 22.8178 39.8538 27.6912 39.8538C32.5647 39.8538 34.0342 40.7358 34.0342 43.629Z" fill="#CDAE8F"/>
<path d="M16.7147 38.2461H15.3402C15.2652 38.2461 15.1952 38.2814 15.1502 38.3419L8.58734 46.8298L2.00944 38.3419C1.96445 38.2814 1.89447 38.2461 1.8195 38.2461H0.394952C0.259996 38.2461 0.155029 38.357 0.155029 38.488V49.6322C0.155029 49.7683 0.264994 49.8741 0.394952 49.8741H1.68454C1.8195 49.8741 1.92446 49.7632 1.92446 49.6322V41.0586L7.91755 48.8711C7.96254 48.9316 8.03251 48.9669 8.10749 48.9669H9.06218C9.13716 48.9669 9.20714 48.9316 9.25212 48.8711L15.1802 41.1493V49.6322C15.1802 49.7683 15.2902 49.8741 15.4202 49.8741H16.7097C16.8447 49.8741 16.9497 49.7632 16.9497 49.6322V38.488C16.9497 38.3519 16.8397 38.2461 16.7097 38.2461H16.7147Z" fill="#CDAE8F"/>
<path d="M74.8662 14.9696C74.8262 14.9293 74.8062 14.8789 74.8012 14.8234L74.7762 13.6339C74.7762 10.6702 77.1705 8.26094 80.1145 8.26094C83.0586 8.26094 85.3428 10.5593 85.4528 13.4222C85.4528 13.5382 85.5478 13.6289 85.6627 13.6289H87.4522C87.5721 13.6289 87.6721 13.5281 87.6721 13.4071C87.5521 9.31941 84.2132 6.02808 80.1195 6.02808C76.0258 6.02808 72.5619 9.43533 72.5619 13.6541L72.6069 15.7609C72.6069 15.8164 72.6319 15.8668 72.6719 15.9071L76.4507 19.7075C76.5357 19.7932 76.5357 19.9293 76.4507 20.0099L71.1474 25.3426C71.0624 25.4283 70.9275 25.4283 70.8475 25.3426L65.5542 20.02C65.4692 19.9343 65.4692 19.7982 65.5542 19.7176L69.333 15.9172C69.373 15.8769 69.3929 15.8265 69.3979 15.771L69.4429 13.639C69.4429 9.45045 66.054 6.03816 61.8853 6.03816C57.7167 6.03816 54.4477 9.32949 54.3327 13.4172C54.3327 13.5382 54.4277 13.639 54.5527 13.639H56.3421C56.4571 13.639 56.547 13.5482 56.552 13.4323C56.662 10.5644 59.0113 8.27102 61.8903 8.27102C64.7694 8.27102 67.2286 10.6803 67.2286 13.6188L67.2036 14.8335C67.2036 14.889 67.1787 14.9394 67.1387 14.9797L62.4202 19.7226C62.3352 19.8083 62.3352 19.9444 62.4202 20.0251L70.8525 28.5079C70.9374 28.5936 71.0724 28.5936 71.1524 28.5079L79.5847 20.015C79.6697 19.9293 79.6697 19.7932 79.5847 19.7126L74.8662 14.9696Z" fill="#CDAE8F"/>
<path d="M80.1195 0C76.8056 0 73.6016 1.23488 71.1374 3.42742C71.0574 3.49798 70.9425 3.49798 70.8625 3.42742C68.3983 1.24496 65.1943 0.0151204 61.8904 0.0151204C54.4177 0.0151204 48.3347 6.12903 48.3347 13.6492C48.3347 16.9708 49.5393 20.1764 51.7436 22.6915L52.9132 23.9415C52.9982 24.0323 53.1332 24.0323 53.2181 23.9415L62.6701 14.4355L61.1056 12.8579L53.2981 20.7107C53.2081 20.8014 53.0532 20.7964 52.9782 20.6905C51.4087 18.6895 50.554 16.2097 50.554 13.6442C50.554 7.35383 55.6424 2.2379 61.8904 2.2379C65.0593 2.2379 67.9984 3.51814 70.1827 5.86694L70.8375 6.5877C70.9225 6.67843 71.0674 6.67843 71.1524 6.5877L71.6472 6.05343C73.7766 3.74496 76.7206 2.30343 79.8546 2.23286C86.2276 2.08165 91.4609 7.25303 91.4609 13.6341C91.4609 16.2097 90.5962 18.6946 89.0367 20.6855C88.9567 20.7863 88.8068 20.7964 88.7168 20.7006L81.0592 12.999C80.9743 12.9133 80.8393 12.9133 80.7593 12.999L79.4947 14.2692C79.4098 14.3548 79.4098 14.4909 79.4947 14.5716L88.7968 23.9264C88.8817 24.0121 89.0217 24.0121 89.1017 23.9264L90.2963 22.6512C92.4806 20.1613 93.6852 16.9607 93.6852 13.6341C93.6852 6.11895 87.6071 0 80.1295 0H80.1195Z" fill="#CDAE8F"/>
</g>
<defs>
<clipPath id="clip0_681_278">
<rect width="142" height="50" fill="white"/>
</clipPath>
</defs>
</svg>
