<svg width="45" height="29" viewBox="0 0 45 29" fill="none" xmlns="http://www.w3.org/2000/svg">
<path d="M26.3264 14.8382C26.2867 14.7987 26.2669 14.7493 26.2619 14.695L26.2371 13.5293C26.2371 10.625 28.6129 8.26395 31.5342 8.26395C34.4555 8.26395 36.7221 10.5163 36.8312 13.3218C36.8312 13.4355 36.9254 13.5244 37.0395 13.5244H38.8151C38.9341 13.5244 39.0333 13.4256 39.0333 13.307C38.9143 9.30121 35.6012 6.07581 31.5391 6.07581C27.4771 6.07581 24.0399 9.41482 24.0399 13.5491L24.0846 15.6137C24.0846 15.668 24.1094 15.7174 24.1491 15.757L27.8986 19.4812C27.983 19.5652 27.983 19.6986 27.8986 19.7776L22.6363 25.0034C22.552 25.0874 22.4181 25.0874 22.3387 25.0034L17.0863 19.7875C17.002 19.7035 17.002 19.5701 17.0863 19.4911L20.8359 15.7668C20.8756 15.7273 20.8954 15.6779 20.9004 15.6236L20.945 13.5342C20.945 9.42963 17.5823 6.08569 13.4459 6.08569C9.30942 6.08569 6.06573 9.31109 5.95166 13.3169C5.95166 13.4355 6.0459 13.5342 6.16989 13.5342H7.94549C8.05956 13.5342 8.14884 13.4453 8.1538 13.3317C8.26291 10.5212 10.594 8.27382 13.4508 8.27382C16.3077 8.27382 18.7479 10.6348 18.7479 13.5145L18.7231 14.7049C18.7231 14.7592 18.6983 14.8086 18.6586 14.8481L13.9766 19.4961C13.8923 19.58 13.8923 19.7134 13.9766 19.7924L22.3437 28.1054C22.428 28.1893 22.5619 28.1893 22.6413 28.1054L31.0084 19.7825C31.0927 19.6986 31.0927 19.5652 31.0084 19.4862L26.3264 14.8382Z" fill="#414F64"/>
<path d="M31.5392 0.168335C28.2509 0.168335 25.0716 1.37848 22.6265 3.5271C22.5471 3.59625 22.433 3.59625 22.3537 3.5271C19.9085 1.38836 16.7293 0.183152 13.4509 0.183152C6.03604 0.183152 0 6.1746 0 13.5441C0 16.7992 1.1953 19.9406 3.38256 22.4053L4.54315 23.6303C4.62746 23.7192 4.76138 23.7192 4.8457 23.6303L14.2246 14.3147L12.6722 12.7686L4.92505 20.4642C4.83578 20.5531 4.68202 20.5481 4.60763 20.4444C3.05026 18.4835 2.20214 16.0533 2.20214 13.5392C2.20214 7.37486 7.25118 2.36141 13.4509 2.36141C16.5954 2.36141 19.5117 3.61601 21.6792 5.91775L22.3289 6.62408C22.4132 6.71299 22.557 6.71299 22.6414 6.62408L23.1324 6.10051C25.2452 3.83828 28.1665 2.42562 31.2763 2.35647C37.6 2.20829 42.7929 7.27607 42.7929 13.5293C42.7929 16.0533 41.9349 18.4884 40.3874 20.4395C40.3081 20.5383 40.1593 20.5481 40.07 20.4543L32.4716 12.9069C32.3873 12.823 32.2534 12.823 32.174 12.9069L30.9192 14.1517C30.8349 14.2356 30.8349 14.369 30.9192 14.448L40.1493 23.6155C40.2337 23.6994 40.3725 23.6994 40.4519 23.6155L41.6373 22.3658C43.8047 19.9258 45 16.7893 45 13.5293C45 6.16472 38.9689 0.168335 31.5491 0.168335H31.5392Z" fill="#414F64"/>
</svg>
