<svg width="18" height="32" viewBox="0 0 18 32" fill="none" xmlns="http://www.w3.org/2000/svg">
<path d="M8.35077 0.0239268C13.109 -0.326959 17.2191 3.22293 17.6804 7.94433V24.1205C16.4381 34.6244 1.56509 34.6286 0.320007 24.1205V7.94433C0.710509 3.7337 4.1274 0.335197 8.35077 0.0239268ZM8.20928 1.71893C5.02867 2.04152 2.35175 4.78069 2.0136 7.94574L2.01643 24.1898C3.25585 32.4073 14.8351 32.355 15.9868 24.1219L15.984 7.87783C15.4718 4.06194 12.062 1.32702 8.20928 1.71893Z" fill="white"/>
<path d="M10.1038 6.94826C11.5059 8.3518 9.38502 10.4656 7.9744 9.11583C6.54964 7.7519 8.67193 5.515 10.1038 6.94826Z" fill="white"/>
</svg>
